<svg id="Layer_1_1_" enable-background="new 0 0 256 256" height="512" viewBox="0 0 256 256" width="512" xmlns="http://www.w3.org/2000/svg"><path d="m248.454 233.214-15.989-5.35 6.626-65.17c.176-1.617-.317-3.266-1.352-4.522-5.419-6.581-12.405-11.884-20.203-15.334l-34.233-15.146-.652-8.658c-.009-.121-.044-.234-.074-.349l.016-.004c-1.654-6.363-3.696-12.9-5.672-19.223-1.541-4.932-5.146-11.941-10.713-20.836-7.389-11.804-16.677-22.353-27.605-31.353-2.785-2.293-5.549-4.821-8.476-7.498-7.683-7.027-15.628-14.293-24.782-17.981-4.844-1.952-8.952-3.532-12.208-4.695-11.857-4.234-44.052-4.335-46.19-4.337l-26.479-1.747c-.063-.004-.125-.005-.19-.003-2.084.061-3.963 1.338-4.786 3.257-.651 1.521-.573 3.227.215 4.682.789 1.454 2.176 2.451 3.806 2.735l11.156 1.94c-.579.851-.818 1.895-.65 2.95.229 1.448 1.179 2.638 2.54 3.182 1.132.454 2.396.385 3.471-.189l11.13-5.937 20.312 4.688c.658.152 1.333.276 2.003.367l17.135 2.337 31.735 23.964-1.752 2.914-2.431.45c.01-2.119-.356-4.223-1.366-6.06-1.483-2.694-6.096-4.012-8.698-4.555l-.982-3.721c-.135-.513-.469-.951-.927-1.218-.458-.268-1.004-.343-1.517-.205l-6.11 1.613c-1.508.008-8.956.069-13.176.546-4.193.475-8.779 3.463-10.905 7.107-3.015 5.168-3.906 11.725-2.405 17.101-4.115 2.377-6.276 7.193-5.007 11.732 1.293 4.626 5.513 7.66 10.097 7.66.931 0 1.877-.126 2.817-.389 3.15-.88 5.656-2.865 6.968-5.374 1.284.325 2.572.516 3.831.526.144.001.287.002.433.002 5.961 0 13.598-.951 18.17-5.138l.029.113-2.319 8.502-6.601 10.728c-.081.13-.146.27-.194.415l-10.877 32.631-10.794 14.946c-.027.038-.053.076-.078.116l-15.035 24.223-18.146 15.779c-1.184 1.028-1.728 2.622-1.42 4.158.151.753.508 1.424.995 1.988l-23.245 24.912-10.944 8.756c-.149.12-.31.237-.473.355-.421.31-.899.659-1.324 1.103-2.603 2.721-1.957 6.538-1.61 8.59.026.151.05.321.077.505.229 1.573.575 3.952 2.438 5.027.451.26 1.851.388 3.623.388 4.014 0 9.937-.654 11.065-1.907.993-1.104 1.252-2.521 1.36-3.488.245-2.189 1.058-6.523 1.419-8.157l29.643-19.192c3.746-2.425 7.727-4.537 11.833-6.279l21.498-9.12 25.896-10.841c7.042-2.948 13.753-6.707 19.945-11.171l21.761-15.688c5.951 2.486 35.387 14.488 57.098 18.013l4.827 56.394-.753 2.432c-.666 2.152-.559 4.484.302 6.566 1.503 3.639 5.019 5.989 8.955 5.989h22.235c3.268 0 5.926-2.659 5.926-5.927.003-2.553-1.623-4.812-4.043-5.62zm-116.552-115.979c1.989.172 4.9.357 8.229.357 4.888 0 10.671-.399 15.728-1.825 8.173-2.304 15.829-6.044 19.461-7.948 1.073 3.517 2.105 7.039 3.034 10.514-3.001 1.982-11.466 7.182-19.413 8.447-9.478 1.509-22.374-.467-27.272-1.342.53-2.695.616-5.471.233-8.203zm41.201-16.584c.338 1.083.679 2.178 1.019 3.272-3.134 1.667-11.077 5.661-19.349 7.994-8.64 2.437-20.053 1.584-23.815 1.207-1.291-3.99-3.581-7.636-6.666-10.5l-17.095-15.873 1.66-6.085c4.721 1.082 9.744-.788 12.567-4.914l.703-1.027c3.335-4.875 2.508-11.448-1.681-15.469l1.541-2.564 25.974 4.826c5.577 5.933 10.556 12.356 14.857 19.228 5.385 8.603 8.846 15.3 10.285 19.905zm-103.292 75.485.405-.55 21.053-24.422c.07-.081.134-.169.19-.261l14.285-23.307c1.214-1.981 2.293-4.069 3.207-6.208l8.425-19.728 4.194 3.895c3.323 3.085 5.564 7.249 6.311 11.724.743 4.458-.02 9.109-2.146 13.098l-.517.967c-1.562 2.928-3.837 5.465-6.58 7.336l-8.36 5.699c-3.799 2.59-7.453 5.47-10.861 8.558l-21.742 19.704zm17.858-149.009-17.654-2.407c-.55-.075-1.101-.176-1.641-.302l-21.044-4.856c-.471-.109-.965-.043-1.391.185l-11.792 6.289c-.031.018-.068.02-.102.005-.026-.01-.064-.025-.075-.094s.02-.094.042-.112l2.331-1.942c.599-.499.853-1.3.652-2.053s-.822-1.32-1.589-1.454l-15.206-2.646c-.572-.1-.857-.481-.976-.7-.119-.22-.284-.667-.056-1.2.201-.468.648-.788 1.152-.83l26.428 1.744c.044.003.088.004.132.004.334 0 33.554.048 44.91 4.104 3.206 1.145 7.263 2.706 12.058 4.639 8.483 3.417 16.157 10.436 23.578 17.223 2.966 2.713 5.768 5.274 8.632 7.634 2.401 1.977 4.708 4.042 6.943 6.17l-21.187-3.936-33.21-25.079c-.273-.207-.595-.34-.935-.386zm23.777 42.46c.676-1.535 1.69-4.155 2.271-7.088l3.613-.669c3.102 2.654 3.804 7.261 1.495 10.636l-.703 1.027c-1.998 2.92-5.649 4.14-8.961 3.106l-.587-2.313c1.119-1.47 2.137-3.03 2.872-4.699-.001.001-.001.001 0 0zm-36.54 14.522c-3.439.958-7.023-1.056-7.985-4.496-.728-2.606.44-5.373 2.725-6.922 2.069 3.555 5.596 6.635 9.511 8.508-.865 1.327-2.377 2.387-4.251 2.91zm11.905-4.997c-5.77-.043-12.575-4.82-14.564-10.223-1.662-4.516-.999-10.41 1.689-15.018 1.49-2.555 4.96-4.815 7.899-5.148.002 0 .005 0 .007-.001.094 5.312 1.247 18.922 9.958 30.169-1.553.158-3.215.236-4.989.221zm9.537-.999c-9.298-10.65-10.407-24.819-10.496-29.687 4.216-.21 8.916-.224 8.979-.224.171 0 .341-.022.506-.066l4.423-1.168.795 3.011c.202.764.834 1.337 1.614 1.464 2.907.473 6.548 1.729 7.124 2.774 2.345 4.263-.562 11.608-1.509 13.759v-.001c-.981 2.229-2.7 4.37-4.411 6.353-1.469 1.702-3.872 2.979-7.025 3.785zm-52.356 110.335 18.375-15.979c.151-.131.281-.284.387-.454l15.157-24.42 10.933-15.138c.119-.164.211-.346.276-.538l10.9-32.702 5.354-8.701 8.887 8.252-8.989 21.048c-.837 1.96-1.826 3.874-2.938 5.689l-14.2 23.168-20.997 24.357c-.033.038-.065.078-.095.119l-10.252 13.914c-.212.288-.442.56-.691.813.354-.726.238-1.599-.305-2.208-.572-.643-1.491-.846-2.28-.507l-9.129 3.911c-.136.059-.25.025-.321-.013-.072-.037-.164-.113-.193-.258-.026-.129.02-.264.121-.353zm19.254 10.056c-4.318 1.831-8.505 4.053-12.445 6.604l-30.292 19.612c-.29.188-.526.447-.686.754-.487.933-1.696 8.205-1.885 9.896-.051.461-.127.809-.225 1.036-1.784.537-8.04 1.024-9.868.854-.23-.469-.387-1.548-.459-2.042-.031-.216-.061-.417-.091-.597-.406-2.4-.455-4.1.557-5.157.181-.189.494-.418.796-.64.21-.153.417-.306.609-.46l11.058-8.847c.076-.061.146-.127.212-.197l24.538-26.3c.304-.059.605-.146.896-.271l4.711-2.019c.092.616.359 1.207.795 1.695.635.711 1.527 1.093 2.438 1.093.434 0 .872-.086 1.289-.265 1.915-.82 3.58-2.141 4.816-3.818l5.005-6.792 3.081-1.369 10.297 10.803zm94.487-45.895 1.565-1.128-2.339-3.244-27.151 19.573c-5.946 4.286-12.389 7.895-19.151 10.726l-25.905 10.844-2.424 1.028-10.35-10.859 7.615-3.384c.194-.086.373-.202.531-.345l21.979-19.92c3.272-2.965 6.781-5.729 10.428-8.217l8.361-5.699c3.275-2.234 5.992-5.263 7.855-8.758l.517-.967c.508-.952.932-1.943 1.308-2.951 4.804.886 18.544 3.084 28.997 1.421 7.572-1.205 15.286-5.468 19.35-8.002l.487 6.458c.055.735.511 1.38 1.185 1.679l35.328 15.631c7.23 3.199 13.708 8.116 18.733 14.219.354.43.523.994.461 1.562l-1.418 13.949c-8.704 4.746-15.681 3.248-18.223 2.41l-.401-4.687c.632.073 1.26.142 1.873.196l.351-3.984c-19.139-1.683-49.567-13.497-59.562-17.551zm88.841 88.151h-22.235c-2.312 0-4.375-1.381-5.259-3.517-.505-1.223-.568-2.593-.177-3.856l.868-2.804c.076-.247.104-.506.082-.763l-4.018-46.938c1.464.349 3.391.651 5.678.651 3.269 0 7.279-.643 11.705-2.626l-4.895 48.143c-.095.931.468 1.802 1.355 2.099l17.507 5.856c.786.264 1.314.997 1.314 1.826.001 1.065-.863 1.929-1.925 1.929z"/></svg>