<svg id="Capa_1" enable-background="new 0 0 512 512" height="512" viewBox="0 0 512 512" width="512" xmlns="http://www.w3.org/2000/svg"><g><path d="m107.358 464.443h297.284c64.989-46.427 107.358-122.485 107.358-208.443 0-141.385-114.615-256-256-256s-256 114.615-256 256c0 85.958 42.369 162.016 107.358 208.443z" fill="#b3e135"/><path d="m378.441 452.837c-36.861-16.328-60.63-52.854-60.63-93.17v-30.009h-123.622v30.009c0 40.316-23.769 76.841-60.63 93.17l-26.201 11.606c41.906 29.937 93.215 47.557 148.642 47.557s106.736-17.62 148.642-47.557z" fill="#303a59"/><path d="m317.811 359.667v-30.009h-123.622v30.009c0 29.589-12.815 57.124-34.2 76.144 29.651 12.005 62.055 18.632 96.011 18.632s66.36-6.627 96.011-18.632c-21.386-19.019-34.2-46.555-34.2-76.144z" fill="#232d47"/><path d="m462 410h-412c-27.614 0-50-22.386-50-50v-250c0-27.614 22.386-50 50-50h412c27.614 0 50 22.386 50 50v250c0 27.614-22.386 50-50 50z" fill="#3e4a68"/><path d="m124 400c0-5.523 4.477-10 10-10v-310c-5.523 0-10-4.477-10-10s4.477-10 10-10h-84c-27.614 0-50 22.386-50 50v250c0 27.614 22.386 50 50 50h84c-5.523 0-10-4.477-10-10z" fill="#303a59"/><path d="m50 390c-16.542 0-30-13.458-30-30v-250c0-16.542 13.458-30 30-30h412c16.542 0 30 13.458 30 30v250c0 16.542-13.458 30-30 30z" fill="#ebf0f3"/><path d="m83 360v-250c0-16.542 13.458-30 30-30h-63c-16.542 0-30 13.458-30 30v250c0 16.542 13.458 30 30 30h63c-16.542 0-30-13.458-30-30z" fill="#ceddf7"/><path d="m459.5 117.247c-9.75 0-188.869 0-188.869 0v-26h-14.631-14.631v26s-179.119 0-188.869 0-52.5 1.5-52.5 5.75 22.5 4.25 24.75 5.25 18.25 5.5 21.75 4.75 9.25-3.25 9.25-3.25 52 13 67.25 12h62.333c2.191 0 6.152 11.589 10.185 25.802h60.482 60.481c4.034-14.214 7.994-25.802 10.185-25.802h62.333c15.25 1 67.25-12 67.25-12s5.75 2.5 9.25 3.25 19.5-3.75 21.75-4.75 24.75-1 24.75-5.25-42.749-5.75-52.499-5.75z" fill="#ffaea1"/><path d="m199.356 151.154c-2.333-5.69-7.873-9.407-14.023-9.407 2.191 0 6.152 11.589 10.185 25.802h10.559z" fill="#f4958c"/><path d="m241.369 117.247s23.275-.5 25.275-26h-25.275z" fill="#f4958c"/><path d="m241.162 37.242.012.005c-3.203 8.477 2.524 10.641-.679 19.118s-8.931 6.313-12.134 14.791 2.524 10.642-.679 19.12c-.114.303-.232.592-.353.869-3.87 8.875-14.142 13.031-23.199 9.609s-14.013-13.333-11.047-22.549c.092-.287.195-.582.31-.885 3.203-8.478 8.931-6.314 12.134-14.791s-2.524-10.642.679-19.119 8.931-6.313 12.134-14.79l.012.005z" fill="#aa1e1e"/><path d="m293.612 55.371-36.692 19.967-38.586-19.967s-5.283-17.397-2.475-27.826 11.516-11.499 11.516-11.499 2.925-16.046 30.202-16.046 48.856 17.65 36.035 55.371z" fill="#ff3345"/><path d="m215.859 27.545c-2.808 10.43 2.475 27.826 2.475 27.826l19.155 9.912 1.644-1.703v-27.287c-6.419-4.979-13.847-13.628-11.758-20.247 0-.001-8.708 1.069-11.516 11.499z" fill="#e32828"/><path d="m228.265 62.043s-3.569-8.689-9.931-6.672.154 20.847 12.568 22.034z" fill="#f4958c"/><path d="m283.681 62.043s3.569-8.689 9.931-6.672-.154 20.847-12.568 22.034z" fill="#ffaea1"/><path d="m284.571 51.078c-.364-.886-.657-2.155-.935-3.621l-27.663-8.023-27.663 8.023c-.279 1.466-.572 2.735-.935 3.621-1.635 3.986-3.688 4.799-3.962 4.891-.02.623-.033 1.25-.033 1.883 0 24 14.592 52.147 32.592 52.147s32.592-28.147 32.592-52.147c0-.633-.012-1.26-.032-1.883-.273-.092-2.326-.904-3.961-4.891z" fill="#ffcfc2"/><path d="m234.589 57.853c0-4.472.513-8.705 1.455-12.639l-7.734 2.243c-.279 1.466-.572 2.735-.935 3.621-1.635 3.986-3.688 4.799-3.962 4.891-.02.623-.033 1.25-.033 1.883 0 24 14.592 52.147 32.592 52.147 1.911 0 3.783-.32 5.604-.916-15.329-5.016-26.987-29.778-26.987-51.23z" fill="#ffaea1"/><path d="m255.973 35.033c-11.393 0-15.952-3.612-19.894-3.621h-.004c-.729-.001-1.438.121-2.164.412-3.69 1.48-4.534 10.023-5.6 15.633h55.325c-1.066-5.61-1.91-14.153-5.6-15.633-.727-.291-1.435-.413-2.164-.412h-.004c-3.943.009-8.502 3.621-19.895 3.621z" fill="#fff"/><path d="m249.761 41.245c0-3.431 2.781-6.212 6.212-6.212-11.393 0-15.952-3.612-19.894-3.621h-.004c-.729-.001-1.438.121-2.164.412-3.69 1.48-4.534 10.023-5.6 15.633h27.663c-3.432 0-6.213-2.781-6.213-6.212z" fill="#ceddf7"/><path d="m409.333 380.414c-15.667-9.333-27.667-17-40-28s-36.175-58.478-52.887-77.739l-62.839-22.927-58.107 22.927s-94.5 4.739-112.833 20.406c-10.496 8.97-8.756 53.592-8.164 94.919h39.139c3.629-16.706 6.358-30.678 6.358-34.919 0-12.667-5-29.667-5-29.667s49 15 94.667 8.333 83.667 14.667 109.667 33.333c14.286 10.257 26.654 17.69 36.452 22.919h66.265c-5.262-4.375-9.726-7.803-12.718-9.585z" fill="#8c4cd1"/><path d="m306.114 230.624c-1.771-7.553-1.764-15.41.029-22.958 2.509-10.56 6.43-26.536 10.284-40.116l-.31-.43c-9.751-13.523-14.026-30.234-11.967-46.778l.385-3.094h-17.878l-2.437 15.65c-1.173 7.53-5.541 14.186-11.982 18.259-4.941 3.124-10.659 4.448-16.265 3.991-5.605.457-11.323-.867-16.265-3.991-6.441-4.073-10.809-10.729-11.982-18.259l-2.437-15.65h-17.878l.385 3.094c2.059 16.544-2.216 33.255-11.967 46.778l-.31.43c3.854 13.58 7.775 29.556 10.284 40.116 1.793 7.548 1.801 15.405.029 22.958l-10.332 44.051s14 24.018 60.5 24.018 60.446-24.018 60.446-24.018z" fill="#ffe854"/><path d="m213.819 289.833 9.541-62.436c1.245-8.383.227-16.941-2.929-24.802 13.021.417 21.45-6.635 21.45-6.635-14.368 2.464-25.797-3.999-30.253-14.868l-9.846-24.017c-1.819 4.109-5.945 10.031-5.955 10.044l-.31.43c.838 2.302 7.886 29.55 8.594 33.081.612 2.521 1.182 4.893 1.69 7.034 1.228 4.718 1.293 9.558 1.308 10.042.185 6.823-.874 11.235-1.279 12.915l-10.33 44.054s4.857 8.313 18.319 15.158z" fill="#ffcf11"/><path d="m446 364.414h-380c-5.523 0-10-4.477-10-10 0-5.523 4.477-10 10-10h380c5.523 0 10 4.477 10 10 0 5.523-4.477 10-10 10z" fill="#aac5ee"/><circle cx="376" cy="354.414" fill="#3e4a68" r="20"/></g></svg>